
<svg width="23" height="20" viewBox="0 0 23 20" fill="none" xmlns="http://www.w3.org/2000/svg">
<g clip-path="url(#clip0_1_277)">
<path fillRule="evenodd" clipRule="evenodd" d="M21.4076 2.2075C21.0431 3.28746 20.4227 4.30197 19.6209 5.12467L16.8743 7.93003L17.4831 10.0181C17.8983 9.78269 18.4254 9.82724 18.7774 10.1863C19.2031 10.6208 19.2031 11.3272 18.7783 11.7608L18.172 12.3808L18.5471 13.6689C18.9569 13.4571 19.4654 13.5117 19.8076 13.8607C20.2325 14.2953 20.2334 15.0016 19.8085 15.4352L19.2334 16.0225L19.6431 17.4288C19.6814 17.5597 19.6467 17.7006 19.5525 17.797L18.0111 19.3705C17.9276 19.4569 17.8067 19.4951 17.6894 19.4733C17.6165 19.4596 17.5498 19.4233 17.4983 19.3705C17.4671 19.3396 17.4423 19.3024 17.4236 19.2615L13.7827 11.0872L11.5854 13.3317C11.5694 13.3489 11.5507 13.3635 11.532 13.3762L9.93026 14.4834L10.9125 18.4897C10.9436 18.616 10.9072 18.7497 10.8174 18.8424L9.78981 19.8914C9.71426 19.9687 9.60937 20.0078 9.5027 19.9987C9.41737 19.9914 9.33648 19.9533 9.27604 19.8914C9.26181 19.8769 9.24937 19.8614 9.23781 19.8442L6.90537 16.5106C6.48937 16.6488 6.00759 16.5525 5.67781 16.2161L5.67692 16.2143C5.34981 15.8807 5.25292 15.3925 5.38981 14.9625L2.12403 12.579C2.10803 12.5671 2.09203 12.5535 2.0787 12.5399C2.01826 12.4781 1.98092 12.3962 1.97292 12.3081C1.96403 12.1999 2.00315 12.0917 2.0787 12.0144L3.10537 10.9654C3.19603 10.8736 3.3267 10.8363 3.45026 10.8681L7.37381 11.8717L8.45648 10.2354C8.46981 10.2163 8.48404 10.1981 8.50004 10.1818L10.6983 7.93639L2.6947 4.21834C2.6547 4.19925 2.61826 4.17289 2.58803 4.14198C2.53648 4.08925 2.50092 4.02107 2.48759 3.94562C2.46626 3.82563 2.50359 3.70381 2.58803 3.61745L4.12848 2.04387C4.2227 1.94751 4.36137 1.91205 4.48937 1.95114L5.86626 2.36931L6.44137 1.78206C6.86626 1.34844 7.55781 1.34935 7.9827 1.78297C8.32492 2.13296 8.37826 2.65203 8.17026 3.0702L9.43159 3.45382L10.0387 2.83384C10.4636 2.40022 11.1551 2.40113 11.58 2.83475C11.932 3.19474 11.9756 3.73381 11.7445 4.15743L13.7898 4.77923L16.5356 1.97387C17.364 1.11845 18.3943 0.463923 19.5125 0.0812087C20.1987 -0.154238 20.9623 0.135752 21.3294 0.776639C21.564 1.23117 21.5889 1.74751 21.4076 2.2075ZM18.2645 11.2363C18.4058 11.0917 18.4058 10.8563 18.2645 10.7108C18.1223 10.5663 17.892 10.5663 17.7507 10.7108L17.7 10.7618L17.9356 11.5717L18.2645 11.2363ZM19.2938 14.9098C19.436 14.7652 19.4351 14.5307 19.2938 14.3853C19.1516 14.2407 18.9214 14.2407 18.78 14.3853L18.7463 14.3507L18.9978 15.2134L19.2938 14.9098ZM17.868 18.4669L18.8858 17.4279L16.2903 8.52637L14.3311 10.5272L17.868 18.4669ZM9.57915 19.0569L10.1578 18.466L9.28937 14.9252L7.53648 16.137L9.57915 19.0569ZM3.47337 11.639L2.89559 12.2299L5.75426 14.3171L6.94004 12.5262L3.47337 11.639ZM7.46892 2.3084C7.32759 2.16296 7.09648 2.16296 6.95515 2.3075L6.65826 2.61021L7.50359 2.86748L7.46892 2.83293C7.61115 2.68839 7.61026 2.45295 7.46892 2.3084ZM11.0663 3.35928C10.9249 3.21474 10.6938 3.21474 10.5525 3.35928L10.2245 3.69472L11.0165 3.93562L11.0663 3.88471C11.2085 3.74017 11.2076 3.50382 11.0663 3.35928ZM4.49026 2.72475L3.47248 3.76381L11.2467 7.37641L11.6458 6.96915L13.2049 5.37557L4.49026 2.72475ZM20.6947 1.13572C20.5107 0.815729 20.1071 0.66028 19.7454 0.784821C18.7329 1.13117 17.8014 1.72388 17.0511 2.4984L9.03959 10.6818L6.15781 15.0334C6.00315 15.2425 6.02181 15.518 6.1907 15.6907C6.35959 15.8634 6.62981 15.8825 6.82004 15.7361L11.0956 12.7817L19.1063 4.60014C19.8307 3.85653 20.3916 2.93929 20.7276 1.9466C20.836 1.67206 20.8209 1.38207 20.6947 1.13572ZM19.356 3.79199L18.7071 3.45837L19.0583 2.74294C19.0849 2.68748 19.0751 2.62021 19.0316 2.57658C18.9889 2.53294 18.9214 2.52385 18.8663 2.55476L18.164 2.90838L17.8423 2.24204L18.5311 1.8966C18.8547 1.71479 19.2671 1.77297 19.5418 2.04841C19.7969 2.32204 19.876 2.73203 19.708 3.07474L19.356 3.79199Z" fill="#666666" stroke="#666666" strokeWidth="0.5"/>
</g>
<defs>
<clipPath id="clip0_1_277">
<rect width="22" height="20" fill="white" transform="translate(0.5)"/>
</clipPath>
</defs>
</svg>
