<svg width="30" height="21" viewBox="0 0 30 21" fill="none" xmlns="http://www.w3.org/2000/svg">
<g clip-path="url(#clip0_1_260)">
<path d="M7.26385 19.7107C8.68807 19.7107 9.84263 18.5467 9.84263 17.1107C9.84263 15.6748 8.68807 14.5107 7.26385 14.5107C5.83962 14.5107 4.68506 15.6748 4.68506 17.1107C4.68506 18.5467 5.83962 19.7107 7.26385 19.7107Z" stroke="#666666" strokeWidth="1.495" strokeLinejoin="round"/>
<path d="M22.7365 19.7107C24.1607 19.7107 25.3153 18.5467 25.3153 17.1107C25.3153 15.6748 24.1607 14.5107 22.7365 14.5107C21.3123 14.5107 20.1577 15.6748 20.1577 17.1107C20.1577 18.5467 21.3123 19.7107 22.7365 19.7107Z" stroke="#666666" strokeWidth="1.495" strokeLinejoin="round"/>
<path d="M4.68474 17.1107H2.10596V2.81074C2.10596 2.46596 2.2418 2.1353 2.48361 1.8915C2.72542 1.64771 3.05338 1.51074 3.39535 1.51074H21.4469C23.1567 1.51074 24.7965 2.46949 26.0056 4.17607C27.2146 5.88265 27.8938 8.19727 27.8938 10.6107V17.1107H25.315M20.1575 17.1107H9.84232" stroke="#666666" strokeWidth="1.495" strokeLinejoin="round"/>
<path d="M20.1577 1.51074L22.0918 10.6107H27.8941" stroke="#666666" strokeWidth="1.495" strokeLinejoin="round"/>
<path d="M2.10596 8.01074H21.4469" stroke="#666666" strokeWidth="1.495" strokeLinejoin="round"/>
<path d="M8.55322 1.51074V8.01074" stroke="#666666" strokeWidth="1.495" strokeLinejoin="round"/>
<path d="M15 1.51074V8.01074" stroke="#666666" strokeWidth="1.495" strokeLinejoin="round"/>
</g>
<defs>
<clipPath id="clip0_1_260">
<path d="M0 2C0 0.89543 0.895431 0 2 0H30V21H0V2Z" fill="white"/>
</clipPath>
</defs>
</svg>
