
<svg width="20" height="20" viewBox="0 0 15 14" fill="none" xmlns="http://www.w3.org/2000/svg">
      <path
        d="M3.09693 0.255866C3.06588 0.261512 2.96991 0.281271 2.88522 0.298207C2.67634 0.337727 2.25575 0.54661 2.06945 0.699039C1.77024 0.94744 1.55006 1.28053 1.41457 1.69265L1.34683 1.89024L1.33836 4.36861L1.32989 6.84981L1.1944 7.01353C0.906476 7.36073 0.708884 7.7418 0.564923 8.24143L0.5 8.46725V10.6267V12.7861L0.58186 12.9554C0.872603 13.5482 1.60087 13.7825 2.18236 13.472C2.58601 13.2575 2.80054 12.8566 2.80054 12.3175V12.1227H7.71213H12.6237V12.3175C12.6237 12.8566 12.8382 13.2575 13.2419 13.472C13.8234 13.7825 14.5517 13.5482 14.8424 12.9554L14.9243 12.7861V10.6408C14.9243 8.51806 14.9243 8.49265 14.8622 8.26119C14.7267 7.75874 14.4754 7.28169 14.1678 6.94014L14.0379 6.79618L14.0294 4.35732C14.0182 1.63055 14.0323 1.80273 13.8121 1.35392C13.5693 0.862758 13.1516 0.509914 12.5814 0.317967L12.3838 0.253044L7.76858 0.250221C5.23093 0.247398 3.12798 0.250221 3.09693 0.255866ZM12.4656 0.910745C12.6943 0.995427 12.8721 1.11681 13.0387 1.29182C13.2278 1.49223 13.3181 1.65595 13.3859 1.91847C13.4395 2.13017 13.4423 2.23179 13.4423 4.2303V6.32478L13.1742 6.19493L12.9088 6.06791L12.906 5.4836C12.906 4.94728 12.9003 4.88235 12.8382 4.68476C12.7536 4.4166 12.635 4.23312 12.4205 4.03553C12.2172 3.84641 11.9773 3.71938 11.7233 3.66575C11.441 3.60647 8.84687 3.60929 8.59 3.66857C8.33596 3.73067 8.0565 3.8831 7.87302 4.0694L7.71213 4.2303L7.55123 4.0694C7.46373 3.9819 7.30847 3.86616 7.20403 3.81253C6.86248 3.63188 6.80885 3.62623 5.28174 3.62623C4.41233 3.62623 3.85061 3.63752 3.74334 3.65728C3.48929 3.70527 3.2042 3.84923 3.0066 4.02988C2.78925 4.23312 2.6707 4.4166 2.58601 4.68476C2.52391 4.88235 2.51827 4.94728 2.51544 5.4836V6.06791L2.21906 6.21187L1.92267 6.35583L1.93113 4.16538L1.9396 1.97492L2.00453 1.80838C2.18236 1.33698 2.61706 0.953086 3.0687 0.865581C3.15621 0.848644 4.94866 0.840176 7.75447 0.842999L12.2991 0.845821L12.4656 0.910745ZM6.84272 4.29522C7.04314 4.38837 7.24073 4.58597 7.33106 4.7892C7.40445 4.9501 7.41009 4.99809 7.42421 5.42432L7.43832 5.88443H5.40594C4.28813 5.88443 3.31428 5.8929 3.24089 5.90137L3.1054 5.92113L3.11669 5.40174C3.12516 4.9247 3.1308 4.87389 3.19008 4.76098C3.27194 4.60573 3.42719 4.43636 3.55704 4.3545C3.76592 4.22748 3.83367 4.22183 5.31279 4.22748C6.68182 4.23312 6.71287 4.23312 6.84272 4.29522ZM11.7825 4.31216C11.983 4.41096 12.1777 4.62266 12.2539 4.82872C12.3047 4.96139 12.3132 5.0489 12.3132 5.45255V5.92113L12.1834 5.90137C12.11 5.8929 11.1361 5.88443 10.0183 5.88443H7.98593L8.00005 5.42432C8.01416 4.99809 8.01981 4.94728 8.09038 4.79485C8.17224 4.61702 8.3162 4.45047 8.46863 4.3545C8.68033 4.22465 8.71703 4.22183 10.2103 4.22748L11.6216 4.23312L11.7825 4.31216ZM12.4543 6.55342C13.1742 6.76231 13.7218 7.20266 14.0605 7.83777C14.2891 8.26401 14.3738 8.71 14.3738 9.48908V9.83628H12.906H11.4382L11.3478 9.91814C11.2688 9.98871 11.2547 10.0198 11.2547 10.1298C11.2547 10.2315 11.2716 10.2738 11.3337 10.3359L11.4099 10.4149L12.8919 10.4234L14.3738 10.4319V10.9795V11.5299H7.71213H1.05044V10.9795V10.4291H4.9176C9.1235 10.4291 8.90333 10.4375 8.97672 10.2738C9.01906 10.1835 9.01906 10.048 8.98237 9.9746C8.90333 9.83064 9.08681 9.83628 4.9176 9.83628H1.05044V9.48908C1.05044 8.71 1.13512 8.26401 1.36376 7.83777C1.7533 7.10386 2.43641 6.62681 3.28041 6.49415C3.31993 6.4885 5.35231 6.48568 7.79681 6.4885L12.2426 6.49132L12.4543 6.55342ZM2.20776 12.2977C2.20776 12.5207 2.16542 12.6731 2.07509 12.7945C1.88315 13.0514 1.54724 13.0909 1.2819 12.8933C1.14359 12.7889 1.07866 12.6365 1.0589 12.3598L1.04197 12.1227H1.62628H2.20776V12.2977ZM14.3654 12.3598C14.3456 12.6365 14.2807 12.7889 14.1424 12.8933C13.877 13.0909 13.5411 13.0514 13.3492 12.7945C13.2588 12.6731 13.2165 12.5207 13.2165 12.2977V12.1227H13.798H14.3823L14.3654 12.3598Z"
        fill="currentColor"
        stroke="currentColor"
        strokeWidth="0.1"
      />
    </svg>