
<svg width="37" height="22" viewBox="0 0 37 22" fill="none" xmlns="http://www.w3.org/2000/svg">
<mask id="mask0_1_247" style="mask-type:luminance" maskUnits="userSpaceOnUse" x="0" y="0" width="36" height="22">
<path d="M35.414 0H0.969482V22H35.414V0Z" fill="white"/>
</mask>
<g mask="url(#mask0_1_247)">
<path fillRule="evenodd" clipRule="evenodd" d="M34.8133 11.3932L29.4772 17.0105C29.7736 17.1223 30.1072 17.1599 30.5141 17.1599C30.8105 17.1599 31.0707 17.422 31.0707 17.7218C31.0707 18.0215 30.8105 18.2838 30.5141 18.2838C28.8835 18.2838 28.0686 17.609 27.3271 17.048C26.6228 16.4862 26.03 16.037 24.8073 16.037C23.5473 16.037 22.9545 16.5238 22.2874 17.048C21.5459 17.609 20.7311 18.2838 19.1004 18.2838C17.4696 18.2838 16.6539 17.609 15.9133 17.048C15.209 16.4862 14.6162 16.037 13.3934 16.037C12.1326 16.037 11.5398 16.5238 10.8727 17.048C10.2427 17.4973 9.57555 18.0592 8.4271 18.2085C8.35278 18.2462 8.27845 18.2838 8.20502 18.2838C8.09353 18.2838 8.01921 18.2838 7.90772 18.2838C7.8343 18.2838 7.75997 18.2838 7.68564 18.2838C6.05497 18.2838 5.24009 17.609 4.49862 17.048C3.79432 16.4862 3.20151 16.037 1.97874 16.037C1.68234 16.037 1.4231 15.7739 1.4231 15.475C1.4231 15.1753 1.68234 14.9132 1.97874 14.9132C2.64587 14.9132 3.20151 15.0259 3.64658 15.2129C2.75646 13.265 2.79362 11.0934 2.79362 10.9807C2.79362 10.6443 3.05377 10.4197 3.35017 10.4197H4.98085L8.1307 5.0645C8.24219 4.91416 8.4271 4.80234 8.61202 4.80234H10.8355V1.02017C10.8355 0.720418 11.0956 0.458252 11.392 0.458252H14.1711C14.356 0.458252 14.5419 0.570085 14.6534 0.757085L16.7283 4.72717C16.7653 4.76475 16.7653 4.80234 16.7653 4.83992H22.3246C22.4723 4.83992 22.621 4.91416 22.7325 5.02691L27.4015 10.4573H34.332C34.5541 10.4573 34.7762 10.6067 34.9248 10.7937C34.9982 10.9807 34.962 11.2438 34.8133 11.3932ZM13.8004 1.61875H11.9105V2.03125H14.0234L13.8004 1.61875ZM14.6162 3.15417H11.9477V4.87659H15.5054L14.6162 3.15417ZM22.0653 5.96284H8.94559L7.72281 7.985H23.8066L22.0653 5.96284ZM24.7701 9.10884H7.09283L6.27796 10.4573H25.9557L24.7701 9.10884ZM3.86866 11.5802C3.94298 12.5913 4.23938 14.8004 5.49932 16.1113C6.1293 16.7483 6.90792 17.1223 7.87146 17.1599C8.94559 17.1223 9.50123 16.6732 10.1321 16.1864C10.8727 15.6245 11.7256 14.9508 13.3191 14.9508C14.9498 14.9508 15.7646 15.6245 16.5061 16.1864C17.2104 16.7483 17.8032 17.1975 19.0261 17.1975C20.286 17.1975 20.8788 16.7108 21.5459 16.1864C22.2874 15.6245 23.1023 14.9508 24.7329 14.9508C26.3636 14.9508 27.1794 15.6245 27.9199 16.1864C28.0686 16.2983 28.2163 16.411 28.365 16.5238L32.9978 11.5802H3.86866ZM1.97874 18.171C3.60941 18.171 4.4243 18.8457 5.16576 19.4075C5.87006 19.9685 6.46287 20.4178 7.68564 20.4178C8.94559 20.4178 9.5393 19.931 10.2055 19.4075C10.947 18.8457 11.799 18.171 13.3934 18.171C15.0233 18.171 15.839 18.8457 16.5804 19.4075C17.2839 19.9685 17.8775 20.4178 19.1004 20.4178C20.3603 20.4178 20.9531 19.931 21.6203 19.4075C22.3617 18.8457 23.1766 18.171 24.8073 18.171C26.4379 18.171 27.2528 18.8457 27.9943 19.4075C28.6986 19.9685 29.2914 20.4178 30.5141 20.4178C30.8105 20.4178 31.0707 20.6808 31.0707 20.9797C31.0707 21.2794 30.8105 21.5415 30.5141 21.5415C28.8835 21.5415 28.0686 20.8678 27.3271 20.3059C26.6228 19.744 26.03 19.2948 24.8073 19.2948C23.5473 19.2948 22.9545 19.7815 22.2874 20.3059C21.5459 20.8678 20.7311 21.5415 19.1004 21.5415C17.4696 21.5415 16.6539 20.8678 15.9133 20.3059C15.209 19.744 14.6162 19.2948 13.3934 19.2948C12.1326 19.2948 11.5398 19.7815 10.8727 20.3059C10.1321 20.8678 9.27915 21.5415 7.68564 21.5415C6.09213 21.5415 5.24009 20.9045 4.49862 20.3059C3.79432 19.744 3.20151 19.2948 1.97874 19.2948C1.68234 19.2948 1.4231 19.0327 1.4231 18.7329C1.4231 18.4332 1.68234 18.171 1.97874 18.171Z" fill="#666666" stroke="#666666" strokeWidth="0.1"/>
</g>
</svg>
